<?xml version="1.0" encoding="UTF-8"?>
<svg id="Layer_2" xmlns="http://www.w3.org/2000/svg" xmlns:xlink="http://www.w3.org/1999/xlink" viewBox="0 0 524.19 512">
  <defs>
    <style>
      .cls-1 {
        fill: url(#linear-gradient-2);
      }

      .cls-2 {
        fill: url(#linear-gradient-4);
      }

      .cls-3 {
        fill: url(#linear-gradient-3);
      }

      .cls-4 {
        fill: url(#linear-gradient);
      }

      .cls-5 {
        opacity: .5;
      }
    </style>
    <linearGradient id="linear-gradient" x1="262.1" y1="0" x2="262.1" y2="512" gradientTransform="translate(524.19) rotate(-180) scale(1 -1)" gradientUnits="userSpaceOnUse">
      <stop offset="0" stop-color="#3d0300"/>
      <stop offset=".04" stop-color="#3d0300" stop-opacity=".91"/>
      <stop offset=".25" stop-color="#3d0300" stop-opacity=".51"/>
      <stop offset=".48" stop-color="#3d0300" stop-opacity=".23"/>
      <stop offset=".72" stop-color="#3d0300" stop-opacity=".06"/>
      <stop offset="1" stop-color="#3d0300" stop-opacity="0"/>
    </linearGradient>
    <linearGradient id="linear-gradient-2" x1="308.29" y1="12.84" x2="308.29" y2="503.22" gradientTransform="translate(524.19) rotate(-180) scale(1 -1)" gradientUnits="userSpaceOnUse">
      <stop offset="0" stop-color="#fe9900"/>
      <stop offset=".07" stop-color="#fe9900" stop-opacity=".84"/>
      <stop offset=".16" stop-color="#fe9900" stop-opacity=".64"/>
      <stop offset=".26" stop-color="#fe9900" stop-opacity=".47"/>
      <stop offset=".36" stop-color="#fe9900" stop-opacity=".33"/>
      <stop offset=".47" stop-color="#fe9900" stop-opacity=".21"/>
      <stop offset=".58" stop-color="#fe9900" stop-opacity=".12"/>
      <stop offset=".7" stop-color="#fe9900" stop-opacity=".05"/>
      <stop offset=".83" stop-color="#fe9900" stop-opacity=".01"/>
      <stop offset="1" stop-color="#fe9900" stop-opacity="0"/>
    </linearGradient>
    <linearGradient id="linear-gradient-3" x1="153.39" y1="9.5" x2="153.39" y2="495.78" gradientTransform="translate(524.19) rotate(-180) scale(1 -1)" gradientUnits="userSpaceOnUse">
      <stop offset="0" stop-color="#fe9900"/>
      <stop offset=".05" stop-color="#fe9900" stop-opacity=".88"/>
      <stop offset=".15" stop-color="#fe9900" stop-opacity=".67"/>
      <stop offset=".26" stop-color="#fe9900" stop-opacity=".49"/>
      <stop offset=".37" stop-color="#fe9900" stop-opacity=".34"/>
      <stop offset=".48" stop-color="#fe9900" stop-opacity=".22"/>
      <stop offset=".59" stop-color="#fe9900" stop-opacity=".12"/>
      <stop offset=".71" stop-color="#fe9900" stop-opacity=".05"/>
      <stop offset=".84" stop-color="#fe9900" stop-opacity=".01"/>
      <stop offset="1" stop-color="#fe9900" stop-opacity="0"/>
    </linearGradient>
    <linearGradient id="linear-gradient-4" x1="153.05" y1="10.15" x2="153.05" y2="490.01" gradientTransform="translate(524.19) rotate(-180) scale(1 -1)" gradientUnits="userSpaceOnUse">
      <stop offset="0" stop-color="#fe9900"/>
      <stop offset=".12" stop-color="#fe9900" stop-opacity=".77"/>
      <stop offset=".25" stop-color="#fe9900" stop-opacity=".57"/>
      <stop offset=".37" stop-color="#fe9900" stop-opacity=".39"/>
      <stop offset=".5" stop-color="#fe9900" stop-opacity=".25"/>
      <stop offset=".62" stop-color="#fe9900" stop-opacity=".14"/>
      <stop offset=".75" stop-color="#fe9900" stop-opacity=".06"/>
      <stop offset=".87" stop-color="#fe9900" stop-opacity=".02"/>
      <stop offset="1" stop-color="#fe9900" stop-opacity="0"/>
    </linearGradient>
  </defs>
  <g id="Layer_1-2" data-name="Layer_1">
    <g class="cls-5">
      <rect class="cls-4" x="0" y="0" width="524.19" height="512" rx="89.74" ry="89.74"/>
      <path class="cls-1" d="M168.83,192.64c.74,2.34,1.68,4.24,1.95,6.23.7,5.12,3.58,6.14,8.4,6.09,23.2-.26,46.4-.25,69.6,0,4.25.05,5.87-1.39,7.12-5.2,4.84-14.72,10.14-29.29,14.98-44.01,1.27-3.86,3.11-5.4,7.27-5.33,13.3.23,26.61.07,39.92.1,5.85.01,6.23.57,4.22,6.25-5.73,16.22-11.5,32.42-17.25,48.63-20.09,56.66-40.19,113.31-60.23,169.99-1.06,3-1.81,5.53-6.02,5.48-17.23-.22-34.46-.15-51.69-.04-3.47.02-4.6-1.15-4.94-4.69-.6-6.23-1.38-12.57-3.19-18.53-3.46-11.4-7.69-22.56-11.6-33.82-19.23-55.34-38.46-110.67-57.68-166.01-2.33-6.7-1.91-7.27,5.17-7.27,11.6,0,23.2.14,34.8-.08,4.11-.08,6.08,1.4,7.29,5.36,3.73,12.21,7.83,24.31,11.89,36.85M212.34,338.26l1.18.17c9.05-29.44,18.09-58.87,27.3-88.84-18.47,0-36.41,0-55.26,0,6.99,23.13,13.9,46.01,20.81,68.9,2.17,7.11,4.07,13.44,5.97,19.78Z"/>
      <g>
        <path class="cls-3" d="M389.3,325.04c-12.27-.28-24.56-.27-36.83,0-4.64.1-6.37-1.28-6.24-6.05.28-10.22.09-20.46.09-30.7,0-43.66,0-87.32,0-130.98,0-6.6.36-6.94,6.91-6.95,9.38-.02,18.76,0,28.14,0q13.9,0,13.9,14.54c0,51.67-.06,102.83.1,154,.01,4.71-1.32,6.26-6.07,6.15Z"/>
        <path class="cls-2" d="M346.13,359.38c5.18-12.68,19.65-19.12,33.64-14.98,13.36,3.95,21.27,18.44,18.05,33.07-3.73,17-19.49,24.8-37.86,18.38-14.31-7.18-19.78-21.9-13.84-36.46Z"/>
      </g>
    </g>
  </g>
</svg>