<?xml version="1.0" encoding="UTF-8"?>
<svg id="Layer_2" xmlns="http://www.w3.org/2000/svg" xmlns:xlink="http://www.w3.org/1999/xlink" viewBox="0 0 524.19 512">
  <defs>
    <style>
      .cls-1 {
        fill: url(#linear-gradient-2);
      }

      .cls-2 {
        fill: url(#linear-gradient-3);
      }

      .cls-3 {
        fill: url(#linear-gradient);
      }

      .cls-4 {
        opacity: .5;
      }
    </style>
    <linearGradient id="linear-gradient" x1="262.1" y1="0" x2="262.1" y2="512" gradientTransform="translate(524.19) rotate(-180) scale(1 -1)" gradientUnits="userSpaceOnUse">
      <stop offset="0" stop-color="#001935"/>
      <stop offset=".21" stop-color="#001935" stop-opacity=".59"/>
      <stop offset=".44" stop-color="#001935" stop-opacity=".26"/>
      <stop offset=".7" stop-color="#001935" stop-opacity=".06"/>
      <stop offset="1" stop-color="#001935" stop-opacity="0"/>
    </linearGradient>
    <linearGradient id="linear-gradient-2" x1="323.81" y1="150.26" x2="323.81" y2="380.84" gradientTransform="translate(524.19) rotate(-180) scale(1 -1)" gradientUnits="userSpaceOnUse">
      <stop offset="0" stop-color="#00a8fd"/>
      <stop offset=".05" stop-color="#00a8fd" stop-opacity=".89"/>
      <stop offset=".15" stop-color="#00a8fd" stop-opacity=".69"/>
      <stop offset=".26" stop-color="#00a8fd" stop-opacity=".5"/>
      <stop offset=".37" stop-color="#00a8fd" stop-opacity=".35"/>
      <stop offset=".48" stop-color="#00a8fd" stop-opacity=".22"/>
      <stop offset=".6" stop-color="#00a8fd" stop-opacity=".12"/>
      <stop offset=".72" stop-color="#00a8fd" stop-opacity=".05"/>
      <stop offset=".85" stop-color="#00a8fd" stop-opacity=".01"/>
      <stop offset="1" stop-color="#00a8fd" stop-opacity="0"/>
    </linearGradient>
    <linearGradient id="linear-gradient-3" x1="154.31" y1="145.54" x2="154.31" y2="327.6" gradientTransform="translate(524.19) rotate(-180) scale(1 -1)" gradientUnits="userSpaceOnUse">
      <stop offset="0" stop-color="#00a8fe"/>
      <stop offset=".05" stop-color="#00a8fd" stop-opacity=".89"/>
      <stop offset=".15" stop-color="#00a8fd" stop-opacity=".68"/>
      <stop offset=".26" stop-color="#00a8fd" stop-opacity=".5"/>
      <stop offset=".37" stop-color="#00a8fd" stop-opacity=".35"/>
      <stop offset=".48" stop-color="#00a8fd" stop-opacity=".22"/>
      <stop offset=".6" stop-color="#00a8fd" stop-opacity=".12"/>
      <stop offset=".72" stop-color="#00a8fd" stop-opacity=".05"/>
      <stop offset=".85" stop-color="#00a8fd" stop-opacity=".01"/>
      <stop offset="1" stop-color="#00a8fd" stop-opacity="0"/>
    </linearGradient>
  </defs>
  <g id="Layer_1-2" data-name="Layer_1">
    <g class="cls-4">
      <rect class="cls-3" x="0" y="0" width="524.19" height="512" rx="89.74" ry="89.74"/>
      <path class="cls-1" d="M165.34,199.69c0,8.11,0,15.7,0,23.5,4.39,0,7.95-.15,11.49.03,12.75.64,25.64.43,38.22,2.26,38.37,5.58,68.29,31.61,67.9,77.36-.27,31.67-13.82,55.35-42.99,69.1-11.53,5.44-23.85,8.73-36.53,8.84-27.1.24-54.21-.38-81.32-.5-4.01-.02-4.29-2.13-4.29-5.21.04-73.18.05-146.36-.03-219.54,0-4.09,1.51-5.29,5.42-5.23,12.11.18,24.23.24,36.33-.02,4.56-.1,5.91,1.53,5.85,5.92-.2,14.33-.07,28.66-.07,43.5M165.98,264.32c0,24.93,0,49.03,0,73.8,16.84.11,33.73,2.81,49.82-4.33,12.8-5.68,19.08-15.83,19.79-29.69.73-14.4-4.4-25.59-17.45-32.61-8.91-4.79-18.58-6.45-28.5-7.14-8.43-.03-15.88-.03-23.66-.03Z"/>
      <path class="cls-2" d="M407.05,244.04c-11.47,5.92-23.53,10.7-35.21,16.24-5.2,2.47-10.6,4.97-14.98,8.58-2.44,2.02-4.07,6.34-4.1,9.64-.04,4.4,3.56,7.12,7.92,8.21,1.81.45,3.65.94,5.5,1.09,17.84,1.43,34.97-1.32,51.28-8.83,5.34-2.46,6.88-1.52,6.91,4.22.05,10.07-.15,20.13.09,30.19.11,4.69-1.55,7.58-6.23,8.32-12.41,1.95-24.78,4.47-37.27,5.54-12.61,1.09-25.27-.22-37.27-4.73-20.23-7.61-33.67-21.34-36.37-43.4-2.74-22.32,7.12-38.93,26.19-49.64,11.97-6.72,24.97-11.6,37.37-17.59,4.24-2.05,8.57-4.41,11.98-7.57,5.5-5.09,3.85-12.74-2.99-15.86-2.29-1.05-4.83-1.77-7.33-2.09-20.78-2.69-40.29,1.73-58.94,10.77-1.94.94-3.84,1.96-6.51,3.32-.31-2.62-.7-4.4-.71-6.18-.06-9.72-.03-19.45-.03-29.17,0-8.89-.02-9.13,8.49-12.04,22.73-7.76,46.05-9.56,69.6-5.14,18.67,3.51,34.38,12.03,43.71,30.11,10.33,22.74,6.59,51.72-21.1,66.02Z"/>
    </g>
  </g>
</svg>