<?xml version="1.0" encoding="UTF-8"?>
<svg id="Layer_2" xmlns="http://www.w3.org/2000/svg" viewBox="0 0 524.19 512">
  <defs>
    <style>
      .cls-1 {
        fill: #9898fe;
      }

      .cls-2 {
        fill: #02025e;
      }
    </style>
  </defs>
  <g id="Layer_1-2" data-name="Layer_1">
    <g>
      <rect class="cls-2" width="524.19" height="512" rx="89.74" ry="89.74"/>
      <path class="cls-1" d="M266.57,320.1c4.74,13.31,9.33,26.26,14.19,39.98-2.57.31-4.16.67-5.75.67-13.48.04-26.96-.09-40.44.1-3.86.06-5.79-1.22-7.02-4.96-5.02-15.2-10.42-30.27-15.47-45.46-.99-2.98-2.11-4.34-5.56-4.31-24.4.17-48.8.16-73.2,0-3.15-.02-4.4,1.09-5.29,3.94-4.63,14.79-9.66,29.46-14.04,44.31-1.51,5.11-4.08,6.62-9.12,6.49-11.25-.3-22.52-.08-33.78-.1-6.99-.01-7.27-.38-4.99-6.92,15.35-44.06,30.72-88.11,46.08-132.17,7.23-20.74,14.73-41.4,21.59-62.26,2.85-8.65,4.34-17.75,6.62-27.37.69-.05,2.35-.26,4-.26,16.72-.02,33.44.08,50.16-.09,3.64-.04,5.34,1.14,6.58,4.66,21.67,61.15,43.48,122.25,65.42,183.73M192.56,262.99c1.47-.08,2.94-.16,4.97-.28-9.25-30.32-18.37-60.21-27.91-91.51-9.44,31.35-18.44,61.23-27.64,91.79,17.01,0,33.33,0,50.58,0Z"/>
      <path class="cls-1" d="M375.73,184.2c9.88,1.54,19.65,1.87,28.54,4.85,26.85,9,39.86,29.93,43.9,56.55,1.76,11.63.28,23.76.26,35.66,0,3.22-1.73,4.48-4.86,4.52-10.73.13-21.45.51-32.18.54-22.69.07-45.38-.01-68.07-.01-.83,0-1.66.18-2.46.27-.63,12.57,8.34,26.02,21.06,31.85,13.85,6.34,28.37,6.99,43.09,4.64,9.68-1.55,19.24-3.86,29.23-5.91.08,1.2.28,2.85.29,4.5.03,7.51.12,15.01,0,22.52-.21,11.92,2.51,11.19-11.44,15.25-23.97,6.96-48.41,8.36-72.75,2.22-25.81-6.51-43.68-22.8-52.83-47.64-10.28-27.91-9.56-56.04,3.07-83.1,14.66-31.4,40.06-46.65,75.16-46.7M402.97,244.97c-4.51-16.49-17.03-24.63-34.92-22.71-14.85,1.59-26.5,14.87-27.56,31.74,18.42,0,36.82.04,55.22-.02,7.91-.03,8.13-.36,7.25-9.01Z"/>
    </g>
  </g>
</svg>