<?xml version="1.0" encoding="UTF-8"?>
<svg id="Layer_2" xmlns="http://www.w3.org/2000/svg" xmlns:xlink="http://www.w3.org/1999/xlink" viewBox="0 0 524.19 512">
  <defs>
    <style>
      .cls-1 {
        fill: url(#linear-gradient-2);
      }

      .cls-2 {
        fill: url(#linear-gradient-3);
      }

      .cls-3 {
        fill: url(#linear-gradient);
      }

      .cls-4 {
        opacity: .5;
      }
    </style>
    <linearGradient id="linear-gradient" x1="262.1" y1="0" x2="262.1" y2="512" gradientTransform="translate(524.19) rotate(-180) scale(1 -1)" gradientUnits="userSpaceOnUse">
      <stop offset="0" stop-color="#02025e"/>
      <stop offset=".03" stop-color="#02025e" stop-opacity=".93"/>
      <stop offset=".2" stop-color="#02025e" stop-opacity=".6"/>
      <stop offset=".38" stop-color="#02025e" stop-opacity=".33"/>
      <stop offset=".57" stop-color="#02025e" stop-opacity=".15"/>
      <stop offset=".76" stop-color="#02025e" stop-opacity=".04"/>
      <stop offset="1" stop-color="#02025e" stop-opacity="0"/>
    </linearGradient>
    <linearGradient id="linear-gradient-2" x1="351.4" y1="151.13" x2="351.4" y2="380.3" gradientTransform="translate(524.19) rotate(-180) scale(1 -1)" gradientUnits="userSpaceOnUse">
      <stop offset="0" stop-color="#9898fe"/>
      <stop offset=".05" stop-color="#9898fe" stop-opacity=".89"/>
      <stop offset=".15" stop-color="#9898fe" stop-opacity=".68"/>
      <stop offset=".26" stop-color="#9898fe" stop-opacity=".5"/>
      <stop offset=".37" stop-color="#9898fe" stop-opacity=".35"/>
      <stop offset=".48" stop-color="#9898fe" stop-opacity=".22"/>
      <stop offset=".6" stop-color="#9898fe" stop-opacity=".12"/>
      <stop offset=".72" stop-color="#9898fe" stop-opacity=".05"/>
      <stop offset=".85" stop-color="#9898fe" stop-opacity=".01"/>
      <stop offset="1" stop-color="#9898fe" stop-opacity="0"/>
    </linearGradient>
    <linearGradient id="linear-gradient-3" x1="154.48" y1="124.39" x2="154.48" y2="305.72" xlink:href="#linear-gradient-2"/>
  </defs>
  <g id="Layer_1-2" data-name="Layer_1">
    <g class="cls-4">
      <rect class="cls-3" x="0" y="0" width="524.19" height="512" rx="89.74" ry="89.74"/>
      <path class="cls-1" d="M266.57,191.9c-21.94,61.48-43.76,122.58-65.42,183.73-1.25,3.51-2.94,4.69-6.58,4.66-16.72-.17-33.44-.06-50.16-.09-1.66,0-3.31-.21-4-.26-2.28-9.62-3.78-18.72-6.62-27.37-6.86-20.86-14.36-41.52-21.59-62.26-15.37-44.05-30.73-88.11-46.08-132.17-2.28-6.54-2.01-6.91,4.99-6.92,11.26-.02,22.53.2,33.78-.1,5.04-.13,7.61,1.38,9.12,6.49,4.38,14.86,9.42,29.52,14.04,44.31.89,2.84,2.14,3.96,5.29,3.94,24.4-.15,48.8-.16,73.2,0,3.45.02,4.57-1.33,5.56-4.31,5.05-15.19,10.45-30.26,15.47-45.46,1.23-3.73,3.16-5.01,7.02-4.96,13.48.19,26.96.05,40.44.1,1.59,0,3.18.36,5.75.67-4.86,13.72-9.45,26.67-14.19,39.98M141.97,249.01c9.2,30.56,18.2,60.44,27.64,91.79,9.55-31.3,18.67-61.19,27.91-91.51-2.02-.11-3.5-.2-4.97-.28-17.25,0-33.57,0-50.58,0Z"/>
      <path class="cls-2" d="M375.73,305.72c-35.1-.05-60.49-15.3-75.16-46.7-12.63-27.05-13.34-55.19-3.07-83.1,9.15-24.84,27.02-41.13,52.83-47.64,24.34-6.14,48.78-4.74,72.75,2.22,13.95,4.05,11.24,3.33,11.44,15.25.13,7.5.04,15.01,0,22.52,0,1.65-.21,3.3-.29,4.5-9.99-2.05-19.55-4.36-29.23-5.91-14.71-2.35-29.24-1.7-43.09,4.64-12.72,5.83-21.69,19.27-21.06,31.85.8.09,1.63.27,2.46.27,22.69,0,45.38-.09,68.07-.01,10.73.04,21.45.41,32.18.54,3.13.04,4.85,1.3,4.86,4.52.02,11.9,1.5,24.02-.26,35.66-4.03,26.62-17.04,47.55-43.9,56.55-8.89,2.98-18.67,3.31-28.54,4.85M395.72,235.94c-18.4-.06-36.8-.02-55.22-.02,1.07,16.87,12.71,30.15,27.56,31.74,17.89,1.92,30.4-6.22,34.92-22.71.88-8.65.66-8.99-7.25-9.01Z"/>
    </g>
  </g>
</svg>