<?xml version="1.0" encoding="UTF-8"?>
<svg id="Layer_2" xmlns="http://www.w3.org/2000/svg" viewBox="0 0 343.85 512">
  <defs>
    <style>
      .cls-1 {
        fill: #ff4d12;
      }

      .cls-2 {
        fill: #ff7361;
      }

      .cls-3 {
        fill: #b659ff;
      }

      .cls-4 {
        fill: #00bcff;
      }

      .cls-5 {
        fill: #00cf7f;
      }
    </style>
  </defs>
  <g id="Layer_1-2" data-name="Layer_1">
    <g>
      <path class="cls-1" d="M74.84,170.85c-9.2-2.93-18.98-4.71-27.49-8.99C22.47,149.34,7.35,128.97,1.8,101.49c-5.06-25.08.68-47.81,15.46-68.05C29.09,17.24,45.51,7.02,65.02,1.96c.88-.23,1.66-.87,2.17-1.64C101.89,0,136.91,0,172.36.47c.43,57.1.44,113.73-.02,170.33-32.81,0-65.15.02-97.5.05Z"/>
      <path class="cls-2" d="M172.8,170.83c0-56.63,0-113.26.03-170.36C206.55,0,240.24,0,274.4,0c1.09.66,1.6,1.74,2.35,1.94,34.06,8.99,55.72,30.96,63.59,64.77,6.01,25.8.56,50.27-16.25,71.68-13.28,16.91-30.67,26.79-51.3,31.52-1.75.4-3.64.18-6.16.66-8.38.48-16.07.54-24.23.53-23.49-.03-46.51,0-69.61-.02-.07-.07,0-.24,0-.24Z"/>
      <path class="cls-5" d="M69.34,512c-1.19-.67-1.83-1.75-2.66-1.94-19.15-4.36-34.68-14.81-46.77-29.8-8.97-11.12-14.88-23.99-17.18-38.5-3.19-20.11-.42-39.06,9.24-56.9,7.36-13.59,18.02-24.08,31.32-31.98,10.26-6.09,21.12-10.21,33.81-11.45,32.34-.32,63.97-.25,95.61-.18.05,30.98.8,61.99-.11,92.94-.5,16.95-7.45,32.28-18.12,45.78-12.49,15.8-28.47,25.83-48.04,30.29-.4.09-.7.67-.8,1.38-11.78.35-23.8.35-36.29.35Z"/>
      <path class="cls-3" d="M172.77,340.77c-31.71.41-63.34.33-95.44.33-17.05-1.78-31.62-8.21-44.63-18.67-15.35-12.34-24.73-28.23-29.15-47.19-4.1-17.6-2.77-34.87,4.11-51.61,11.11-27.02,31.25-43.67,59.25-51.15,2.34-.62,4.74-1.01,7.51-1.57,32.75-.09,65.1-.12,97.91-.11.46.03.39.2.46.73.13,23.18.19,45.84.18,68.94-.02,10.8.02,21.15.06,31.5-.07,22.77-.13,45.54-.27,68.79Z"/>
      <path class="cls-4" d="M173.37,272.19c-.37-10.56-.41-20.91-.06-31.92.46-1.82.31-3.04.62-4.13,6.02-20.56,16.49-37.96,34.5-50.45,10.54-7.31,22.16-11.57,34.43-14.52,7.69-.06,15.38-.13,23.54-.26,16.93,1.42,31.53,7.4,44.56,17.62,17.5,13.72,27.98,31.75,31.63,53.32,3.47,20.53-.27,40.1-11.19,58.24-11.47,19.04-27.58,31.79-48.9,37.99-28.03,8.16-53.78,3.32-77.05-14.07-17.32-12.94-27.67-30.41-32.08-51.82Z"/>
    </g>
  </g>
</svg>