<?xml version="1.0" encoding="UTF-8"?>
<svg id="Layer_2" xmlns="http://www.w3.org/2000/svg" viewBox="0 0 524.19 512">
  <defs>
    <style>
      .cls-1 {
        fill: #00a8fd;
      }

      .cls-2 {
        fill: #001935;
      }

      .cls-3 {
        fill: #00a8fe;
      }
    </style>
  </defs>
  <g id="Layer_1-2" data-name="Layer_1">
    <g>
      <rect class="cls-2" x="0" width="524.19" height="512" rx="89.74" ry="89.74"/>
      <path class="cls-3" d="M165.34,312.31c0,14.84-.13,29.17.07,43.5.06,4.4-1.29,6.02-5.85,5.92-12.11-.26-24.22-.21-36.33-.02-3.91.06-5.43-1.14-5.42-5.23.09-73.18.07-146.36.03-219.54,0-3.08.28-5.2,4.29-5.21,27.11-.12,54.22-.74,81.32-.5,12.68.11,25,3.41,36.53,8.84,29.16,13.75,42.72,37.42,42.99,69.1.39,45.75-29.53,71.78-67.9,77.36-12.58,1.83-25.47,1.63-38.22,2.26-3.54.18-7.1.03-11.49.03,0,7.8,0,15.39,0,23.5M189.63,247.66c9.92-.69,19.6-2.35,28.5-7.14,13.05-7.02,18.18-18.21,17.45-32.61-.7-13.86-6.98-24.01-19.79-29.69-16.09-7.14-32.98-4.44-49.82-4.33v73.8c7.77,0,15.23,0,23.66-.03Z"/>
      <path class="cls-1" d="M428.15,333.98c-9.34,18.08-25.05,26.6-43.71,30.11-23.55,4.42-46.87,2.62-69.6-5.14-8.51-2.91-8.49-3.15-8.49-12.04,0-9.72-.03-19.45.03-29.17.01-1.78.4-3.56.71-6.18,2.67,1.36,4.57,2.38,6.51,3.32,18.65,9.04,38.17,13.46,58.94,10.77,2.5-.32,5.04-1.05,7.33-2.09,6.84-3.12,8.49-10.77,2.99-15.86-3.42-3.16-7.74-5.53-11.98-7.57-12.4-5.99-25.4-10.87-37.37-17.59-19.08-10.71-28.93-27.31-26.19-49.64,2.7-22.06,16.15-35.8,36.37-43.4,12.01-4.51,24.66-5.82,37.27-4.73,12.49,1.08,24.86,3.59,37.27,5.54,4.68.74,6.34,3.62,6.23,8.32-.23,10.06-.03,20.13-.09,30.19-.03,5.74-1.57,6.68-6.91,4.22-16.31-7.51-33.44-10.26-51.28-8.83-1.85.15-3.69.64-5.5,1.09-4.36,1.08-7.96,3.81-7.92,8.21.03,3.3,1.65,7.62,4.1,9.64,4.38,3.61,9.77,6.11,14.98,8.58,11.68,5.54,23.74,10.31,35.21,16.24,27.69,14.3,31.43,43.28,21.1,66.02Z"/>
    </g>
  </g>
</svg>