<?xml version="1.0" encoding="UTF-8"?>
<svg id="Layer_2" xmlns="http://www.w3.org/2000/svg" xmlns:xlink="http://www.w3.org/1999/xlink" viewBox="0 0 524.19 512">
  <defs>
    <style>
      .cls-1 {
        fill: url(#linear-gradient-2);
      }

      .cls-2 {
        fill: url(#linear-gradient-3);
      }

      .cls-3 {
        fill: url(#linear-gradient);
      }

      .cls-4 {
        opacity: .5;
      }
    </style>
    <linearGradient id="linear-gradient" x1="329.11" y1="0" x2="329.11" y2="512" gradientTransform="translate(591.2) rotate(-180) scale(1 -1)" gradientUnits="userSpaceOnUse">
      <stop offset="0" stop-color="#480138"/>
      <stop offset=".1" stop-color="#480138" stop-opacity=".78"/>
      <stop offset=".3" stop-color="#480138" stop-opacity=".43"/>
      <stop offset=".51" stop-color="#480138" stop-opacity=".19"/>
      <stop offset=".74" stop-color="#480138" stop-opacity=".05"/>
      <stop offset="1" stop-color="#480138" stop-opacity="0"/>
    </linearGradient>
    <linearGradient id="linear-gradient-2" x1="414.69" y1="134.5" x2="414.69" y2="373.01" gradientTransform="translate(591.2) rotate(-180) scale(1 -1)" gradientUnits="userSpaceOnUse">
      <stop offset="0" stop-color="#fe60f5"/>
      <stop offset=".05" stop-color="#fe60f5" stop-opacity=".89"/>
      <stop offset=".15" stop-color="#fe60f5" stop-opacity=".68"/>
      <stop offset=".26" stop-color="#fe60f5" stop-opacity=".5"/>
      <stop offset=".37" stop-color="#fe60f5" stop-opacity=".35"/>
      <stop offset=".48" stop-color="#fe60f5" stop-opacity=".22"/>
      <stop offset=".6" stop-color="#fe60f5" stop-opacity=".12"/>
      <stop offset=".72" stop-color="#fe60f5" stop-opacity=".05"/>
      <stop offset=".85" stop-color="#fe60f5" stop-opacity=".01"/>
      <stop offset="1" stop-color="#fe60f5" stop-opacity="0"/>
    </linearGradient>
    <linearGradient id="linear-gradient-3" x1="220.72" y1="130.14" x2="220.72" y2="381.86" xlink:href="#linear-gradient-2"/>
  </defs>
  <g id="Layer_1-2" data-name="Layer_1">
    <g class="cls-4">
      <rect class="cls-3" x="0" y="0" width="524.19" height="512" rx="89.74" ry="89.74"/>
      <g>
        <path class="cls-1" d="M132.91,367.15c-2.05,4.13-4.57,6-9.38,5.85-10.83-.34-21.68-.11-32.53-.11h-11.3c1.63-2.98,2.62-4.86,3.67-6.71,20.28-35.76,40.49-71.56,60.96-107.21,2.17-3.77,1.88-6.32-.24-9.85-21.45-35.72-42.73-71.54-64.03-107.36-1.16-1.95-2.07-4.04-3.47-6.82,2.77-.14,4.54-.31,6.31-.32,11.58-.02,23.16.23,34.73-.12,5.16-.16,7.99,1.75,10.34,6.24,14.28,27.32,28.81,54.51,43.27,81.73.91,1.72,1.94,3.37,3.24,5.61,1.37-2.41,2.37-4.12,3.31-5.86,14.95-27.38,29.95-54.73,44.76-82.19,2.09-3.87,4.58-5.59,9.08-5.51,12.86.24,25.73.07,38.59.11,1.73,0,3.45.28,6.21.53-1.59,2.92-2.63,4.98-3.79,6.96-21.69,36.86-43.35,73.74-65.19,110.51-2.04,3.43-2.15,5.87-.1,9.36,20.36,34.66,40.53,69.43,60.72,104.18,1.05,1.8,1.82,3.75,3.04,6.29-2.48.19-4.06.41-5.64.41-11.39.03-22.79-.16-34.18.11-4.53.11-6.95-1.64-8.95-5.59-12.28-24.22-24.78-48.32-37.22-72.46-2.31-4.48-4.66-8.95-7.48-14.35-8.87,17.16-17.27,33.41-25.88,50.01-6.45,12.41-12.82,24.41-18.85,36.57Z"/>
        <path class="cls-2" d="M433.03,139.36c3.64,1.46,6.8,2.96,10.11,4.04,4.24,1.38,5.25,3.87,3.89,8.01-3.24,9.88-3.83,20.06-3.8,30.43.17,64.52.03,129.04.2,193.56.01,5.09-1.34,6.62-6.46,6.44-10.83-.39-21.69-.29-32.53-.03-4.12.1-5.35-1.15-5.31-5.28.19-21.69.09-43.38.09-65.07,0-1.95,0-3.9,0-6.11-2.34.25-3.99.37-5.61.62-43.92,6.79-88.41-23.58-97.86-66.87-2.97-13.62-2.89-27.33-1.23-41.12,4.14-34.52,26.89-59.3,61-65.67,26.29-4.91,51.91-.96,77.53,7.06M350.79,263.02c11.83,11.61,26.08,15.04,42.12,11.48,4.41-.98,6.55-3.11,6.5-8.36-.3-32.14-.3-64.29,0-96.43.05-5.39-2.1-6.81-6.74-7.69-34.47-6.48-54.63,19.88-58.5,43.11-1.75,10.47-1.45,20.84,1.29,31.12,3.29,10.66,7.99,19.56,15.33,26.77Z"/>
      </g>
    </g>
  </g>
</svg>