<?xml version="1.0" encoding="UTF-8"?>
<svg id="Layer_2" xmlns="http://www.w3.org/2000/svg" viewBox="0 0 524.19 512">
  <defs>
    <style>
      .cls-1 {
        fill: #fe9900;
      }

      .cls-2 {
        fill: #fd9900;
      }

      .cls-3 {
        fill: #3d0300;
      }
    </style>
  </defs>
  <g id="Layer_1-2" data-name="Layer_1">
    <g>
      <rect class="cls-3" width="524.19" height="512" rx="89.74" ry="89.74"/>
      <path class="cls-1" d="M168.83,319.36c-4.06,12.54-8.16,24.64-11.89,36.85-1.21,3.95-3.18,5.43-7.29,5.36-11.6-.21-23.2-.07-34.8-.08-7.08,0-7.5-.57-5.17-7.27,19.22-55.34,38.45-110.67,57.68-166.01,3.91-11.26,8.14-22.42,11.6-33.82,1.81-5.96,2.59-12.3,3.19-18.53.34-3.54,1.47-4.71,4.94-4.69,17.23.11,34.46.18,51.69-.04,4.22-.05,4.96,2.47,6.02,5.48,20.05,56.67,40.15,113.33,60.23,169.99,5.75,16.21,11.52,32.41,17.25,48.63,2.01,5.69,1.63,6.24-4.22,6.25-13.31.03-26.62-.14-39.92.1-4.16.07-6-1.47-7.27-5.33-4.84-14.72-10.14-29.29-14.98-44.01-1.25-3.81-2.87-5.25-7.12-5.2-23.2.26-46.4.26-69.6,0-4.83-.05-7.7.97-8.4,6.09-.27,1.99-1.21,3.89-1.95,6.23M206.37,193.51c-6.91,22.89-13.83,45.77-20.81,68.9h55.26c-9.21-29.97-18.26-59.41-27.3-88.84l-1.18.17c-1.9,6.33-3.8,12.66-5.97,19.78Z"/>
      <path class="cls-1" d="M395.27,347.1q0,14.54-13.9,14.54c-9.38,0-18.76.01-28.14,0-6.55-.01-6.91-.35-6.91-6.95-.01-43.66,0-87.32,0-130.98,0-10.23.2-20.47-.09-30.69-.13-4.78,1.6-6.16,6.24-6.05,12.27.27,24.56.28,36.83,0,4.75-.11,6.08,1.43,6.07,6.15-.15,51.16-.1,102.32-.1,154Z"/>
      <path class="cls-2" d="M359.96,116.16c18.37-6.42,34.12,1.37,37.86,18.38,3.21,14.63-4.7,29.11-18.05,33.07-13.99,4.14-28.46-2.3-33.64-14.98-5.95-14.57-.48-29.28,13.84-36.46Z"/>
    </g>
  </g>
</svg>