<?xml version="1.0" encoding="UTF-8"?>
<svg id="Layer_2" xmlns="http://www.w3.org/2000/svg" viewBox="0 0 524.19 512">
  <defs>
    <style>
      .cls-1 {
        fill: #080808;
      }

      .cls-2 {
        fill-rule: evenodd;
      }

      .cls-2, .cls-3 {
        fill: #146ef5;
      }
    </style>
  </defs>
  <g id="Layer_1-2" data-name="Layer_1">
    <g>
      <rect class="cls-1" x="6" y="6" width="512.19" height="500" rx="30.07" ry="30.07"/>
      <path class="cls-3" d="M488.12,12c13.27,0,24.07,10.8,24.07,24.07v439.86c0,13.27-10.8,24.07-24.07,24.07H36.07c-13.27,0-24.07-10.8-24.07-24.07V36.07c0-13.27,10.8-24.07,24.07-24.07h452.05M488.12,0H36.07C16.23,0,0,16.23,0,36.07v439.86c0,19.84,16.23,36.07,36.07,36.07h452.05c19.84,0,36.07-16.23,36.07-36.07V36.07c0-19.84-16.23-36.07-36.07-36.07h0Z"/>
    </g>
    <path class="cls-2" d="M420.43,156l-101.04,200h-94.91l42.29-82.89h-1.9c-34.89,45.85-86.94,76.04-161.1,82.89v-81.74s47.45-2.84,75.34-32.53h-75.34v-85.73h84.67v70.51h1.9s34.6-70.51,34.6-70.51h64.04v70.06h1.9s35.9-70.07,35.9-70.07h93.66Z"/>
  </g>
</svg>