<?xml version="1.0" encoding="UTF-8"?>
<svg id="Layer_2" xmlns="http://www.w3.org/2000/svg" viewBox="0 0 529.58 512">
  <defs>
    <style>
      .cls-1 {
        fill: #470137;
      }

      .cls-2 {
        fill: #480138;
      }

      .cls-3 {
        fill: #fe60f5;
      }
    </style>
  </defs>
  <g id="Layer_1-2" data-name="Layer_1">
    <g>
      <path class="cls-1" d="M205.18,511.87c-38.79,0-77.03-.44-115.26.12-42.32.61-82.81-34.07-88.9-76.65-.54-3.79-.97-7.64-.97-11.46C0,311.93,0,199.97,0,88.02c0-21.58,8.28-40.09,21.9-56.18,12.91-15.25,29.39-25.33,48.99-29.8,5.13-1.17,10.48-1.91,15.74-1.92C204.65.01,322.67.08,440.69,0c21.8-.01,40.52,8.05,56.8,21.75,15.43,12.99,25.61,29.64,30.07,49.45,1.16,5.14,1.85,10.5,1.85,15.76.1,111.59-.03,223.17.17,334.76.04,22.01-7.56,41.03-21.25,57.54-12.97,15.64-29.67,26.13-49.71,30.61-5.14,1.15-10.49,1.92-15.74,1.93-79.05.12-158.1.08-237.7.08M153.82,183.19c-6.24-12.06-12.61-24.05-18.64-36.22-2.05-4.13-4.57-6-9.38-5.85-10.83.34-21.68.11-32.53.11h-11.3c1.63,2.98,2.62,4.86,3.67,6.71,20.28,35.76,40.49,71.56,60.96,107.21,2.17,3.77,1.88,6.32-.24,9.85-21.45,35.72-42.73,71.54-64.03,107.36-1.16,1.95-2.07,4.04-3.47,6.82,2.77.14,4.54.31,6.31.32,11.58.02,23.16-.23,34.73.12,5.16.16,7.99-1.75,10.34-6.24,14.28-27.32,28.81-54.51,43.27-81.73.91-1.72,1.94-3.37,3.24-5.61,1.37,2.41,2.37,4.12,3.31,5.86,14.95,27.38,29.95,54.73,44.76,82.19,2.09,3.87,4.58,5.59,9.08,5.51,12.86-.24,25.73-.07,38.59-.11,1.73,0,3.45-.28,6.21-.53-1.59-2.92-2.63-4.98-3.79-6.96-21.69-36.86-43.35-73.74-65.19-110.51-2.04-3.43-2.15-5.87-.1-9.36,20.36-34.66,40.53-69.43,60.72-104.18,1.05-1.8,1.82-3.75,3.04-6.29-2.48-.19-4.06-.41-5.64-.41-11.39-.03-22.79.16-34.18-.11-4.53-.11-6.95,1.64-8.95,5.59-12.28,24.22-24.78,48.32-37.22,72.46-2.31,4.48-4.66,8.95-7.48,14.35-8.87-17.16-17.27-33.41-26.09-50.36M435.71,374.61c3.23-1.31,6.4-2.81,9.7-3.88,4.24-1.38,5.25-3.87,3.89-8.01-3.24-9.88-3.83-20.06-3.8-30.43.17-64.52.03-129.04.2-193.56.01-5.09-1.34-6.62-6.46-6.44-10.83.39-21.69.29-32.53.03-4.12-.1-5.35,1.15-5.31,5.28.19,21.69.09,43.38.09,65.07,0,1.95,0,3.9,0,6.11-2.34-.25-3.99-.37-5.61-.62-43.92-6.79-88.41,23.58-97.86,66.87-2.97,13.62-2.89,27.33-1.23,41.12,4.14,34.52,26.89,59.3,61,65.67,26.29,4.91,51.91.96,77.93-7.22Z"/>
      <path class="cls-3" d="M154.03,183.54c8.61,16.6,17.01,32.84,25.88,50.01,2.82-5.41,5.17-9.87,7.48-14.35,12.44-24.14,24.94-48.25,37.22-72.46,2-3.95,4.42-5.7,8.95-5.59,11.39.27,22.79.08,34.18.11,1.58,0,3.16.22,5.64.41-1.21,2.53-1.99,4.49-3.04,6.29-20.19,34.75-40.36,69.52-60.72,104.18-2.05,3.49-1.93,5.94.1,9.36,21.84,36.77,43.49,73.65,65.19,110.51,1.17,1.98,2.21,4.04,3.79,6.96-2.75.24-4.48.52-6.21.53-12.86.04-25.73-.14-38.59.11-4.49.09-6.99-1.64-9.08-5.51-14.82-27.45-29.82-54.8-44.76-82.19-.95-1.74-1.95-3.45-3.31-5.86-1.3,2.24-2.33,3.89-3.24,5.61-14.46,27.23-28.98,54.42-43.27,81.73-2.35,4.49-5.18,6.39-10.34,6.24-11.57-.35-23.15-.1-34.73-.12-1.77,0-3.54-.17-6.31-.32,1.4-2.78,2.31-4.87,3.47-6.82,21.3-35.81,42.58-71.63,64.03-107.36,2.12-3.53,2.4-6.08.24-9.85-20.47-35.65-40.68-71.45-60.96-107.21-1.05-1.85-2.04-3.73-3.67-6.71h11.3c10.84,0,21.69.23,32.53-.11,4.8-.15,7.33,1.72,9.38,5.85,6.03,12.16,12.4,24.16,18.85,36.57Z"/>
      <path class="cls-3" d="M435.3,374.77c-25.62,8.02-51.23,11.98-77.53,7.06-34.11-6.37-56.86-31.15-61-65.67-1.65-13.79-1.74-27.5,1.23-41.12,9.45-43.3,53.94-73.67,97.86-66.87,1.62.25,3.27.36,5.61.62,0-2.21,0-4.16,0-6.11,0-21.69.1-43.38-.09-65.07-.04-4.14,1.2-5.38,5.31-5.28,10.84.26,21.7.36,32.53-.03,5.11-.18,6.47,1.35,6.46,6.44-.17,64.52-.03,129.04-.2,193.56-.03,10.37.56,20.55,3.8,30.43,1.36,4.14.35,6.63-3.89,8.01-3.31,1.07-6.47,2.57-10.11,4.04M337.73,277.88c-2.74,10.28-3.04,20.64-1.29,31.12,3.87,23.24,24.03,49.59,58.5,43.11,4.64-.87,6.79-2.29,6.74-7.69-.29-32.14-.29-64.29,0-96.43.05-5.25-2.09-7.38-6.5-8.36-16.04-3.55-30.29-.13-42.12,11.48-7.34,7.21-12.04,16.11-15.33,26.77Z"/>
      <path class="cls-2" d="M337.87,277.45c3.15-10.23,7.85-19.13,15.19-26.34,11.83-11.61,26.08-15.04,42.12-11.48,4.41.98,6.55,3.11,6.5,8.36-.3,32.14-.3,64.29,0,96.43.05,5.39-2.1,6.81-6.74,7.69-34.47,6.48-54.63-19.88-58.5-43.11-1.75-10.47-1.45-20.84,1.43-31.54Z"/>
    </g>
  </g>
</svg>